<svg width="420" height="420" viewBox="0 0 420 420" fill="none" xmlns="http://www.w3.org/2000/svg">
  <style>
    .icon { fill: #0588F0; }
    @media (prefers-color-scheme: dark) {
      .icon { fill: #3B9EFF; }
    }
  </style>
  <path class="icon" d="M249.507 109.449C250.443 108.121 251.967 107.332 253.592 107.332L309.618 107.332C311.244 107.332 312.19 109.169 311.246 110.493L167.995 311.403C167.057 312.719 165.54 313.5 163.924 313.5L111.289 313.5C108.857 313.5 107.436 310.758 108.838 308.77L249.507 109.449Z"/>
  <path class="icon" d="M297.909 180.005C300.163 176.863 303.793 175 307.66 175L356.799 175C360.039 175 361.935 178.65 360.072 181.3L283.032 290.903C273.295 304.756 257.423 313 240.49 313L208.344 313C205.901 313 204.483 310.236 205.907 308.251L297.909 180.005Z"/>
  <path class="icon" d="M121.591 240.709C119.337 243.851 115.707 245.714 111.84 245.714L62.7007 245.714C59.461 245.714 57.5652 242.065 59.4282 239.414L136.468 129.812C146.205 115.959 162.077 107.715 179.01 107.715L213.104 107.715C214.732 107.715 215.678 109.557 214.729 110.88L121.591 240.709Z"/>
</svg>
