<svg xmlns="http://www.w3.org/2000/svg" xmlns:xlink="http://www.w3.org/1999/xlink" version="1.1" viewBox="85 309 855 152" xml:space="preserve">
<desc>Created with Fabric.js 6.7.1</desc>
<defs>
</defs>
<g transform="matrix(0.714 0 0 0.714 195.067 384.5043)" id="Layer_1">
<path style="stroke: none; stroke-width: 1; stroke-dasharray: none; stroke-linecap: butt; stroke-dashoffset: 0; stroke-linejoin: miter; stroke-miterlimit: 4; fill: rgb(5,136,240); fill-rule: nonzero; opacity: 1;" transform=" translate(-511.55, -283.5)" d="M 413.6 386.7 L 463 386.7 C 467 386.7 470.8 384.7 473.2 381.4 L 611.7 185.7 C 613.3 183.4 611.7 180.3 608.9 180.3 L 559.5 180.3 C 555.5 180.3 551.7 182.3 549.3 185.6 L 410.8 381.3 C 409.2 383.6 410.8 386.7 413.6 386.7 Z M 422.7 311.9 L 515.8 180.3 L 483.7 180.3 C 464.6 180.3 446.8 189.5 435.7 205.1 L 360.2 311.7 C 358.6 314 360.2 317.1 363 317.1 L 412.4 317.1 C 416.4 317.1 420.2 315.1 422.6 311.8 Z M 660.1 248.7 L 610.7 248.7 C 606.7 248.7 602.9 250.7 600.5 254 L 506.6 386.7 L 538.7 386.7 C 557.8 386.7 575.6 377.5 586.7 361.9 L 662.9 254.2 C 664.5 251.9 662.9 248.8 660.1 248.8 Z" stroke-linecap="round"/>
</g>
<g transform="matrix(0.7669 0 0 0.7669 640.3946 384.5023)" id="Layer_1">
<path style="stroke: none; stroke-width: 1; stroke-dasharray: none; stroke-linecap: butt; stroke-dashoffset: 0; stroke-linejoin: miter; stroke-miterlimit: 4; fill: rgb(5,136,240); fill-rule: nonzero; opacity: 1;" transform=" translate(-512.05, -520.6)" d="M 221.9 535.9 C 223.9 540 224.9 545 224.9 550.9 C 224.9 556.8 223.8 562.8 221.2 567.4 C 218.8 572 215.4 575.9 211.2 578.9 C 206.9 581.9 201.9 584.1 196 585.6 C 190.2 587.1 183.9 587.6 177.1 587.6 C 167.1 587.6 157.4 586.1 148.3 583 C 139.2 579.8 130.8 575.2 123.4 569.1 L 131.4 555 C 133.4 557.2 136 559.3 139.2 561.3 C 142.4 563.5 145.9 565.4 150 567.1 C 154.1 568.8 158.4 570.1 163 571.2 C 167.6 572.3 172.5 572.7 177.5 572.7 C 187 572.7 194.2 571 199.4 567.7 C 204.6 564.4 207.2 559.3 207.2 552.7 C 207.2 546.1 206.5 546 204.8 543.4 C 203.1 540.8 200.7 538.6 197.4 536.7 C 194.2 534.8 190.3 533.4 185.5 531.9 C 180.7 530.4 175.3 528.9 169.2 527.4 C 162.5 525.9 156.8 524.1 151.6 522.2 C 146.6 520.3 142.3 518.1 139 515.5 C 135.7 512.9 133.1 509.7 131.2 506 C 129.5 502.3 128.6 497.8 128.6 492.6 C 128.6 487.4 129.9 480.7 132.1 475.9 C 134.5 471.1 137.9 467 142.1 463.6 C 146.2 460.3 151.2 457.8 157.1 456.2 C 162.9 454.5 169.2 453.6 176 453.6 C 182.8 453.6 192.9 455.1 200.1 457.7 C 207.2 460.5 213.7 464.2 219.2 468.7 L 211.4 482.3 C 209.9 480.6 207.9 479 205.3 477.5 C 202.9 475.8 200.1 474.3 196.9 473 C 193.9 471.7 190.6 470.6 186.9 469.8 C 183.2 469 179.5 468.7 175.4 468.7 C 165.2 468.7 157.8 470.6 152.9 474.5 C 148.1 478.2 145.7 483.6 145.7 490.3 C 145.7 497 146.4 496.8 147.7 499.2 C 149.2 501.4 151.2 503.5 154.2 505.1 C 157.2 506.8 160.7 508.3 165 509.6 C 169.5 510.7 174.5 512 180.4 513.5 C 187.3 515 193.4 516.7 199 518.5 C 204.6 520.4 209.2 522.8 213.1 525.6 C 217 528.6 220 531.9 222 536 Z M 288.4 523.2 L 280 538.2 L 280 586.3 L 296.7 586.3 L 296.7 538.2 L 346.9 454.4 L 328.7 454.4 L 288.4 523.1 Z M 230.1 454.5 L 271.2 523.2 L 279.7 508.5 L 248.5 454.4 L 230.1 454.4 Z M 459.9 557.2 L 378.2 454.5 L 365.2 454.5 L 365.2 464.5 L 381.9 485.7 L 462.5 586.4 L 476.6 586.4 L 476.6 454.7 L 459.9 454.7 L 459.9 557.2 Z M 365.2 586.4 L 381.9 586.4 L 381.9 512.3 L 365.2 490.6 L 365.2 586.5 Z M 592.7 559.6 C 589.7 562.6 586.6 565 583.4 566.8 C 579.9 568.7 576.5 570.1 572.8 571.1 C 569.1 571.8 565.6 572.4 562.2 572.4 C 555.5 572.4 549.6 570.9 544 568.1 C 538.4 565.1 533.6 561.4 529.5 556.6 C 525.2 551.6 522.1 546.2 519.8 539.9 C 518.3 536 517.4 532.1 516.8 528 L 499.9 528 C 500.6 533.4 501.9 538.8 504 544.2 C 507 552.4 511.2 559.6 516.8 565.9 C 522.4 572.2 528.9 577.4 536.5 581.5 C 543.9 585.4 552.3 587.4 561.4 587.4 C 570.5 587.4 571.6 586.7 577 585.4 C 582.2 583.9 587.2 582.1 592 579.5 C 596.8 576.9 601.1 573.6 604.8 569.8 C 608.5 566.1 611.5 561.6 613.7 556.8 L 599.8 549.2 C 597.9 553.3 595.5 556.6 592.6 559.6 Z M 519.3 501.7 C 521.2 495.6 524.1 490 528 485.2 C 531.7 480.4 536.5 476.3 542.1 473.3 C 547.7 470.3 554.2 468.7 561.6 468.7 C 569 468.7 568.3 469.1 571.8 469.8 C 575.1 470.5 578.5 471.8 581.8 473.7 C 585 475.4 588.1 477.6 590.9 480.6 C 593.7 483.4 596.1 486.9 598 491.2 L 611.2 482.7 C 607.1 474.2 601 467.1 592.4 461.9 C 584 456.5 574 453.9 562.3 453.9 C 550.6 453.9 543.5 455.8 535.7 459.7 C 527.7 463.4 521.2 468.4 515.8 474.7 C 510.4 481 506.3 488.1 503.5 495.9 C 501.5 501.5 500.3 507 499.8 512.6 L 516.7 512.6 C 517.3 508.9 518 505.4 519.1 501.8 Z M 634.9 586.4 L 651.6 586.4 L 651.6 454.5 L 634.9 454.5 L 634.9 586.4 Z M 670.5 469.4 L 778.2 469.4 L 778.2 454.5 L 670.5 454.5 L 670.5 469.4 Z M 716.1 586.4 L 732.8 586.4 L 732.8 486.1 L 716.1 486.1 L 716.1 586.4 Z M 882.5 454.5 L 842.2 523.2 L 833.8 538.2 L 833.8 586.3 L 850.5 586.3 L 850.5 538.2 L 900.7 454.4 L 882.5 454.4 Z M 783.9 454.5 L 825 523.2 L 833.5 508.5 L 802.3 454.4 L 783.9 454.4 Z" stroke-linecap="round"/>
</g>
</svg>